{"title":"Breaking Wind 2011 DvDRip XviD Ac3 Feel-Free","uid":7079275,"size":1136337150,"categoryP":"video","categoryS":"movies","magnet":"?xt=urn:btih:5eecadb97c9b3ac74c3ae9b1e0b33a783384e0b0&amp;dn=Breaking+Wind+2011+DvDRip+XviD+Ac3+Feel-Free&amp;tr=udp%3A%2F%2Ftracker.openbittorrent.com%3A80&amp;tr=udp%3A%2F%2Fopen.demonii.com%3A1337&amp;tr=udp%3A%2F%2Ftracker.coppersurfer.tk%3A6969&amp;tr=udp%3A%2F%2Fexodus.desync.com%3A6969","seeders":0,"leechers":0,"uploader":".BONE.","files":10,"time":1330967524,"description":"Genre:Comedy\nLanguage:English &lt;a href=&quot;\nhttp://www.imdb.com/title/tt1651323/&quot; rel=&quot;nofollow&quot; target=&quot;_NEW&quot;&gt;\nhttp://www.imdb.com/title/tt1651323/&lt;/a&gt;\nSource:DVDR Thanks!\nEncoder:Tony\n\nFormat : AVI\nFormat/Info : Audio Video Interleave\nFile size : 1.06 GiB\nDuration : 1h 18mn\nOverall bit rate : 1 927 Kbps\n\nVideo\nID : 0\nFormat : MPEG-4 Visual\nFormat profile : Advanced Simple@L5\nFormat settings, BVOP : 1\nFormat settings, QPel : No\nFormat settings, GMC : No warppoints\nFormat settings, Matrix : Default (H.263)\nCodec ID : XVID\nCodec ID/Hint : XviD\nDuration : 1h 18mn\nBit rate : 1 469 Kbps\nWidth : 640 pixels\nHeight : 352 pixels\nDisplay aspect ratio : 16:9\nFrame rate : 25.000 fps\nColor space : YUV\nChroma subsampling : 4:2:0\nBit depth : 8 bits\nScan type : Progressive\nCompression mode : Lossy\nBits/(Pixel*Frame) : 0.261\nStream size : 825 MiB (76%)\nWriting library : XviD 1.2.1 (UTC 2008-12-04)\n\nAudio\nID : 1\nFormat : AC-3\nFormat/Info : Audio Coding 3\nMode extension : CM (complete main)\nCodec ID : 2000\nDuration : 1h 18mn\nBit rate mode : Constant\nBit rate : 448 Kbps\nChannel(s) : 6 channels\nChannel positions : Front: L C R, Side: L R, LFE\nSampling rate : 48.0 KHz\nBit depth : 16 bits\nCompression mode : Lossy\nStream size : 252 MiB (23%)\nAlignment : Aligned on interleaves\nInterleave, duration : 40 ms (1.00 video frame)\nInterleave, preload duration : 512 ms\n\n\nPlot:\nA comedic spoof based on the worldwide phenomenon, The Twilight","torrent":{"xt":"urn:btih:5eecadb97c9b3ac74c3ae9b1e0b33a783384e0b0","amp;dn":"Breaking+Wind+2011+DvDRip+XviD+Ac3+Feel-Free","amp;tr":["udp%3A%2F%2Ftracker.openbittorrent.com%3A80","udp%3A%2F%2Fopen.demonii.com%3A1337","udp%3A%2F%2Ftracker.coppersurfer.tk%3A6969","udp%3A%2F%2Fexodus.desync.com%3A6969"],"infoHash":"5eecadb97c9b3ac74c3ae9b1e0b33a783384e0b0","infoHashBuffer":{"type":"Buffer","data":[94,236,173,185,124,155,58,199,76,58,233,177,224,179,58,120,51,132,224,176]},"announce":[],"urlList":[]}}